<?xml version="1.0" encoding="UTF-8" standalone="no"?>
<svg
   xmlns:dc="http://purl.org/dc/elements/1.1/"
   xmlns:cc="http://creativecommons.org/ns#"
   xmlns:rdf="http://www.w3.org/1999/02/22-rdf-syntax-ns#"
   xmlns:svg="http://www.w3.org/2000/svg"
   xmlns="http://www.w3.org/2000/svg"
   viewBox="0 0 2560 1440"
   height="1440"
   width="2560"
   xml:space="preserve"
   id="svg2"
   version="1.1"><metadata
     id="metadata8"><rdf:RDF><cc:Work
         rdf:about=""><dc:format>image/svg+xml</dc:format><dc:type
           rdf:resource="http://purl.org/dc/dcmitype/StillImage" /></cc:Work></rdf:RDF></metadata><defs
     id="defs6"><clipPath
       id="clipPath18"
       clipPathUnits="userSpaceOnUse"><path
         id="path16"
         d="M 0,1080 H 1920 V 0 H 0 Z" /></clipPath><linearGradient
       id="linearGradient28"
       spreadMethod="pad"
       gradientTransform="matrix(42.1297,0,0,42.1297,-11.699,1077.9408)"
       gradientUnits="userSpaceOnUse"
       y2="0"
       x2="1"
       y1="0"
       x1="0"><stop
         id="stop22"
         offset="0"
         style="stop-opacity:1;stop-color:#cc7e25" /><stop
         id="stop24"
         offset="0.476064"
         style="stop-opacity:1;stop-color:#fcfaa7" /><stop
         id="stop26"
         offset="1"
         style="stop-opacity:1;stop-color:#cc7e25" /></linearGradient><linearGradient
       id="linearGradient40"
       spreadMethod="pad"
       gradientTransform="matrix(41.3461,0,0,41.3461,-34.706,1078.7428)"
       gradientUnits="userSpaceOnUse"
       y2="0"
       x2="1"
       y1="0"
       x1="0"><stop
         id="stop34"
         offset="0"
         style="stop-opacity:1;stop-color:#cc7e25" /><stop
         id="stop36"
         offset="0.476064"
         style="stop-opacity:1;stop-color:#fcfaa7" /><stop
         id="stop38"
         offset="1"
         style="stop-opacity:1;stop-color:#cc7e25" /></linearGradient><linearGradient
       id="linearGradient52"
       spreadMethod="pad"
       gradientTransform="matrix(2.32913,0,0,2.32913,-23.246,1057.6588)"
       gradientUnits="userSpaceOnUse"
       y2="0"
       x2="1"
       y1="0"
       x1="0"><stop
         id="stop46"
         offset="0"
         style="stop-opacity:1;stop-color:#cc7e25" /><stop
         id="stop48"
         offset="0.476064"
         style="stop-opacity:1;stop-color:#fcfaa7" /><stop
         id="stop50"
         offset="1"
         style="stop-opacity:1;stop-color:#cc7e25" /></linearGradient><linearGradient
       id="linearGradient64"
       spreadMethod="pad"
       gradientTransform="matrix(76.6206,0,0,76.6206,-40.832,1077.7678)"
       gradientUnits="userSpaceOnUse"
       y2="0"
       x2="1"
       y1="0"
       x1="0"><stop
         id="stop58"
         offset="0"
         style="stop-opacity:1;stop-color:#cc7e25" /><stop
         id="stop60"
         offset="0.476064"
         style="stop-opacity:1;stop-color:#fcfaa7" /><stop
         id="stop62"
         offset="1"
         style="stop-opacity:1;stop-color:#cc7e25" /></linearGradient><linearGradient
       id="linearGradient118"
       spreadMethod="pad"
       gradientTransform="matrix(46.603931,0,0,-46.603931,1063.9854,426.18283)"
       gradientUnits="userSpaceOnUse"
       y2="0"
       x2="1"
       y1="0"
       x1="0"><stop
         id="stop112"
         offset="0"
         style="stop-opacity:1;stop-color:#cc7e25" /><stop
         id="stop114"
         offset="0.476064"
         style="stop-opacity:1;stop-color:#fcfaa7" /><stop
         id="stop116"
         offset="1"
         style="stop-opacity:1;stop-color:#cc7e25" /></linearGradient><linearGradient
       id="linearGradient140"
       spreadMethod="pad"
       gradientTransform="matrix(37.532444,0,0,-37.532444,1083.4493,407.12231)"
       gradientUnits="userSpaceOnUse"
       y2="0"
       x2="1"
       y1="0"
       x1="0"><stop
         id="stop134"
         offset="0"
         style="stop-opacity:1;stop-color:#cc7e25" /><stop
         id="stop136"
         offset="0.476064"
         style="stop-opacity:1;stop-color:#fcfaa7" /><stop
         id="stop138"
         offset="1"
         style="stop-opacity:1;stop-color:#cc7e25" /></linearGradient><linearGradient
       id="linearGradient162"
       spreadMethod="pad"
       gradientTransform="matrix(30.518345,0,0,-30.518345,1116.7588,400.07294)"
       gradientUnits="userSpaceOnUse"
       y2="0"
       x2="1"
       y1="0"
       x1="0"><stop
         id="stop156"
         offset="0"
         style="stop-opacity:1;stop-color:#cc7e25" /><stop
         id="stop158"
         offset="0.476064"
         style="stop-opacity:1;stop-color:#fcfaa7" /><stop
         id="stop160"
         offset="1"
         style="stop-opacity:1;stop-color:#cc7e25" /></linearGradient><linearGradient
       id="linearGradient184"
       spreadMethod="pad"
       gradientTransform="matrix(36.02689,0,0,-36.02689,1143.1268,406.24243)"
       gradientUnits="userSpaceOnUse"
       y2="0"
       x2="1"
       y1="0"
       x1="0"><stop
         id="stop178"
         offset="0"
         style="stop-opacity:1;stop-color:#cc7e25" /><stop
         id="stop180"
         offset="0.476064"
         style="stop-opacity:1;stop-color:#fcfaa7" /><stop
         id="stop182"
         offset="1"
         style="stop-opacity:1;stop-color:#cc7e25" /></linearGradient><linearGradient
       id="linearGradient206"
       spreadMethod="pad"
       gradientTransform="matrix(36.02689,0,0,-36.02689,1173.7552,406.24243)"
       gradientUnits="userSpaceOnUse"
       y2="0"
       x2="1"
       y1="0"
       x1="0"><stop
         id="stop200"
         offset="0"
         style="stop-opacity:1;stop-color:#cc7e25" /><stop
         id="stop202"
         offset="0.476064"
         style="stop-opacity:1;stop-color:#fcfaa7" /><stop
         id="stop204"
         offset="1"
         style="stop-opacity:1;stop-color:#cc7e25" /></linearGradient><linearGradient
       id="linearGradient228"
       spreadMethod="pad"
       gradientTransform="matrix(32.55735,0,0,-32.55735,1206.0176,415.73532)"
       gradientUnits="userSpaceOnUse"
       y2="0"
       x2="1"
       y1="0"
       x1="0"><stop
         id="stop222"
         offset="0"
         style="stop-opacity:1;stop-color:#cc7e25" /><stop
         id="stop224"
         offset="0.476064"
         style="stop-opacity:1;stop-color:#fcfaa7" /><stop
         id="stop226"
         offset="1"
         style="stop-opacity:1;stop-color:#cc7e25" /></linearGradient><linearGradient
       id="linearGradient250"
       spreadMethod="pad"
       gradientTransform="matrix(160.60355,0,0,-160.60355,854.98682,626)"
       gradientUnits="userSpaceOnUse"
       y2="0"
       x2="1"
       y1="0"
       x1="0"><stop
         id="stop244"
         offset="0"
         style="stop-opacity:1;stop-color:#cc7e25" /><stop
         id="stop246"
         offset="0.476064"
         style="stop-opacity:1;stop-color:#fcfaa7" /><stop
         id="stop248"
         offset="1"
         style="stop-opacity:1;stop-color:#cc7e25" /></linearGradient></defs><g
     transform="matrix(1.3333333,0,0,-1.3333333,0,1440)"
     id="g10"><g
       id="g12"><g
         clip-path="url(#clipPath18)"
         id="g14"><g
           transform="translate(654.332,487.7158)"
           id="g20"><path
             id="path30"
             style="fill:none;stroke:url(#linearGradient28);stroke-width:2;stroke-linecap:butt;stroke-linejoin:miter;stroke-miterlimit:10;stroke-dasharray:none;stroke-opacity:1"
             d="m 0,0 c 0.234,0.189 0.266,0.459 0.288,0.731 0.392,0.314 0.519,0.743 0.528,1.222 1.462,2.682 2.492,5.556 3.707,8.347 1.933,4.434 3.815,8.891 5.804,13.537 L 17.705,3.706 c 0.292,-1.128 0.656,-2.227 1.284,-3.221 0.659,-2.879 1.903,-5.557 2.862,-8.333 1.326,-3.838 2.763,-7.635 4.117,-11.463 0.384,-1.085 0.802,-2.043 2.401,-1.773 -0.074,-0.114 -0.147,-0.229 -0.221,-0.345 h -38.573 c 0.03,0.122 0.051,0.26 0.066,0.259 1.619,-0.088 1.959,1.148 2.443,2.292 2.457,5.798 4.938,11.584 7.411,17.374 C -0.255,-1.03 -0.06,-0.538 0,0 Z" /></g><g
           transform="translate(641.8643,490.1914)"
           id="g32"><path
             id="path42"
             style="fill:none;stroke:url(#linearGradient40);stroke-width:2;stroke-linecap:butt;stroke-linejoin:miter;stroke-miterlimit:10;stroke-dasharray:none;stroke-opacity:1"
             d="m 0,0 c -0.187,0.718 -0.46,1.399 -0.867,2.024 0.054,0.222 -0.052,0.368 -0.229,0.478 -2.787,5.734 -5.574,11.469 -8.361,17.203 0.019,0.156 0.015,0.359 -0.171,0.343 C -9.805,20.032 -9.822,19.854 -9.7,19.707 -9.73,13.986 -9.759,8.266 -9.789,2.545 -9.873,0.52 -9.936,-1.505 -9.798,-3.53 c -0.034,-3.024 -0.08,-6.047 -0.096,-9.071 -0.017,-3.028 0.024,-6.057 -0.017,-9.085 -0.015,-1.071 0.102,-1.932 1.418,-2.172 h -11.925 c 1.918,0.337 1.445,1.821 1.445,3.051 10e-4,5.683 -0.015,11.366 -0.025,17.048 l 0.001,8.772 c 0.01,4.816 -0.011,9.633 0.049,14.449 0.015,1.167 -0.649,1.462 -1.608,1.582 0.345,0.548 0.808,0.338 1.183,0.34 2.949,0.019 5.898,-0.019 8.846,0.03 0.787,0.013 1.157,-0.267 1.493,-0.957 2.739,-5.625 5.521,-11.228 8.291,-16.839 0.09,-0.182 0.2,-0.355 0.379,-0.674 1.705,3.74 3.36,7.363 5.01,10.989 0.994,2.187 1.983,4.376 2.967,6.567 0.248,0.554 0.501,0.934 1.259,0.918 2.822,-0.06 5.647,-0.024 8.674,-0.024 C 13.05,11.632 8.6,1.969 4.057,-7.896 L 1.846,-3.685 C 1.387,-2.378 0.831,-1.121 0,0 Z" /></g><g
           transform="translate(632.1641,509.8984)"
           id="g44"><path
             id="path54"
             style="fill:none;stroke:url(#linearGradient52);stroke-width:2;stroke-linecap:butt;stroke-linejoin:miter;stroke-miterlimit:10;stroke-dasharray:none;stroke-opacity:1"
             d="M 0,0 C -0.122,0.147 -0.105,0.325 0.072,0.341 0.258,0.357 0.262,0.154 0.244,-0.002 L 0.122,0.002 Z" /></g><g
           transform="translate(681.6548,460)"
           id="g56"><path
             id="path66"
             style="fill:none;stroke:url(#linearGradient64);stroke-width:2;stroke-linecap:butt;stroke-linejoin:miter;stroke-miterlimit:10;stroke-dasharray:none;stroke-opacity:1"
             d="m 0,0 h -59.689 c -4.106,0 -7.466,3.359 -7.466,7.466 v 44.965 c 0,4.105 3.36,7.465 7.466,7.465 H 0 c 4.106,0 7.466,-3.36 7.466,-7.465 V 7.466 C 7.466,3.359 4.106,0 0,0 Z" /></g><g
           transform="translate(724.6328,464.2627)"
           id="g68"><path
             id="path70"
             style="fill:#000000;fill-opacity:1;fill-rule:nonzero;stroke:none"
             d="m 0,0 8.48,12.248 h 11.396 4.241 c 1.467,0 2.746,-0.048 3.832,-0.143 -0.634,0.856 -1.369,1.935 -2.204,3.241 -0.838,1.305 -1.641,2.528 -2.41,3.668 L 15.195,31.617 -6.104,0 h -16.62 L 6.377,43.082 c 0.95,1.377 2.147,2.61 3.596,3.703 1.446,1.092 3.278,1.638 5.494,1.638 2.125,0 3.9,-0.511 5.325,-1.531 1.425,-1.021 2.634,-2.29 3.63,-3.81 L 52.776,0 Z" /></g><g
           transform="translate(839.6812,464.2627)"
           id="g72"><path
             id="path74"
             style="fill:#000000;fill-opacity:1;fill-rule:nonzero;stroke:none"
             d="m 0,0 h -21.233 l -13.703,12.533 c -2.352,2.137 -4.148,3.798 -5.393,4.985 -1.243,1.186 -2.25,2.183 -3.018,2.991 0.044,-1.093 0.09,-2.22 0.136,-3.383 0.044,-1.163 0.067,-2.314 0.067,-3.453 V 0 h -14.109 v 47.64 h 14.109 V 36.603 c 0,-1.473 -0.023,-2.92 -0.067,-4.344 -0.046,-1.425 -0.114,-2.754 -0.204,-3.988 0.904,0.854 2.002,1.91 3.29,3.168 1.289,1.258 2.974,2.789 5.054,4.593 L -21.979,47.64 H -1.628 L -18.995,33.968 c -1.492,-1.188 -2.815,-2.233 -3.967,-3.134 -1.154,-0.902 -2.183,-1.686 -3.087,-2.35 -0.905,-0.665 -1.73,-1.258 -2.476,-1.78 -0.746,-0.523 -1.482,-1.021 -2.205,-1.495 1.312,-0.95 2.894,-2.137 4.749,-3.561 1.853,-1.424 4.25,-3.395 7.19,-5.911 z" /></g><g
           transform="translate(896.1196,511.9023)"
           id="g76"><path
             id="path78"
             style="fill:#000000;fill-opacity:1;fill-rule:nonzero;stroke:none"
             d="M 0,0 -9.089,-12.391 H -25.302 V -47.64 h -14.042 v 35.249 H -60.645 L -51.555,0 Z" /></g><g
           transform="translate(925.6963,475.8701)"
           id="g80"><path
             id="path82"
             style="fill:#000000;fill-opacity:1;fill-rule:nonzero;stroke:none"
             d="m 0,0 c 3.527,0 6.512,0.153 8.954,0.463 2.442,0.308 4.42,0.913 5.936,1.815 1.514,0.902 2.611,2.148 3.289,3.74 0.679,1.589 1.018,3.667 1.018,6.23 0,2.564 -0.339,4.64 -1.018,6.231 -0.678,1.59 -1.775,2.824 -3.289,3.703 -1.516,0.878 -3.494,1.471 -5.936,1.78 -2.442,0.309 -5.427,0.463 -8.954,0.463 -3.528,0 -6.512,-0.154 -8.954,-0.463 -2.442,-0.309 -4.421,-0.902 -5.936,-1.78 -1.516,-0.879 -2.611,-2.113 -3.29,-3.703 -0.678,-1.591 -1.017,-3.667 -1.017,-6.231 0,-2.563 0.339,-4.641 1.017,-6.23 0.679,-1.592 1.774,-2.838 3.29,-3.74 1.515,-0.902 3.494,-1.507 5.936,-1.815 C -6.512,0.153 -3.528,0 0,0 m 0,36.815 c 11.034,0 19.321,-1.97 24.861,-5.91 C 30.4,26.964 33.17,20.745 33.17,12.248 33.17,3.703 30.412,-2.54 24.895,-6.48 19.377,-10.421 11.08,-12.391 0,-12.391 c -11.125,0 -19.435,1.97 -24.93,5.911 -5.494,3.94 -8.241,10.183 -8.241,18.728 0,8.497 2.757,14.716 8.275,18.657 5.517,3.94 13.815,5.91 24.896,5.91" /></g><g
           transform="translate(1025.8877,494.0283)"
           id="g84"><path
             id="path86"
             style="fill:#000000;fill-opacity:1;fill-rule:nonzero;stroke:none"
             d="m 0,0 c 0,-2.659 -0.498,-5.067 -1.492,-7.228 -0.995,-2.16 -2.453,-4 -4.375,-5.518 -1.923,-1.52 -4.264,-2.706 -7.021,-3.561 -2.759,-0.854 -5.902,-1.282 -9.429,-1.282 H -46.06 v -12.177 h -13.973 v 24.355 h 39.072 c 2.171,0 3.855,0.498 5.054,1.495 1.197,0.997 1.798,2.325 1.798,3.987 0,1.661 -0.601,2.979 -1.798,3.952 -1.199,0.973 -2.883,1.46 -5.054,1.46 h -39.072 l 9.293,12.391 h 28.491 c 3.527,0 6.67,-0.439 9.429,-1.317 2.757,-0.879 5.088,-2.101 6.986,-3.667 1.899,-1.567 3.347,-3.443 4.342,-5.626 C -0.498,5.08 0,2.658 0,0" /></g><g
           transform="translate(1082.1895,476.5107)"
           id="g88"><path
             id="path90"
             style="fill:#000000;fill-opacity:1;fill-rule:nonzero;stroke:none"
             d="m 0,0 -9.09,-12.248 h -40.09 v 47.64 h 14.042 l 0,-35.392 z" /></g><g
           transform="translate(1103.8301,464.2627)"
           id="g92"><path
             id="path94"
             style="fill:#000000;fill-opacity:1;fill-rule:nonzero;stroke:none"
             d="m 0,0 8.479,12.248 h 11.396 4.24 c 1.469,0 2.747,-0.048 3.833,-0.143 -0.635,0.856 -1.369,1.935 -2.205,3.241 -0.837,1.305 -1.639,2.528 -2.408,3.668 L 15.194,31.617 -6.105,0 h -16.62 L 6.376,43.082 c 0.949,1.377 2.147,2.61 3.596,3.703 1.446,1.092 3.278,1.638 5.495,1.638 2.124,0 3.899,-0.511 5.324,-1.531 1.425,-1.021 2.634,-2.29 3.629,-3.81 L 52.775,0 Z" /></g><g
           transform="translate(1226,464.2627)"
           id="g96"><path
             id="path98"
             style="fill:#000000;fill-opacity:1;fill-rule:nonzero;stroke:none"
             d="M 0,0 H -18.79 L -28.897,12.604 H -50.47 V 0 h -14.041 v 24.354 h 39.48 c 2.171,0 4.002,0.474 5.494,1.424 1.493,0.95 2.239,2.254 2.239,3.917 0,1.851 -0.678,3.24 -2.035,4.165 -1.356,0.926 -3.256,1.389 -5.698,1.389 h -39.48 l 9.157,12.391 h 29.169 c 2.579,0 5.247,-0.249 8.005,-0.748 2.758,-0.498 5.268,-1.388 7.531,-2.67 2.259,-1.283 4.125,-3.016 5.595,-5.199 1.47,-2.184 2.205,-4.984 2.205,-8.403 0,-1.85 -0.271,-3.607 -0.814,-5.269 -0.543,-1.663 -1.322,-3.158 -2.34,-4.486 -1.018,-1.33 -2.263,-2.457 -3.731,-3.383 -1.47,-0.925 -3.132,-1.579 -4.986,-1.958 0.769,-0.618 1.628,-1.401 2.578,-2.35 0.949,-0.95 2.215,-2.255 3.798,-3.916 z" /></g></g></g><g
       id="g100"><g
         id="g102"><g
           id="g108"><g
             id="g110"><path
               id="path120"
               style="fill:url(#linearGradient118);stroke:none"
               d="m 1102.62,458.501 c -1.2,-1.456 -1.799,-2.822 -1.799,-4.095 v 0 c 0,-1.273 0.299,-2.246 0.899,-2.918 v 0 c 0.599,-0.675 1.377,-1.011 2.332,-1.011 v 0 c 2.007,0 3.6,0.697 4.774,2.092 v 0 c 1.175,1.396 1.763,2.773 1.763,4.133 v 0 c 0,1.358 -0.307,2.362 -0.918,3.011 v 0 c -0.613,0.647 -1.335,0.973 -2.166,0.973 v 0 c -2.057,0 -3.686,-0.728 -4.885,-2.185 m -4.627,-12.762 c -1.127,-0.881 -4.353,-5.159 -9.678,-12.834 v 0 c -5.325,-7.677 -10.558,-15.548 -15.699,-23.614 v 0 c -5.141,-8.068 -7.969,-12.971 -8.483,-14.709 v 0 c -0.098,-0.246 -0.148,-0.968 -0.148,-2.167 v 0 c 0,-0.098 0.234,-0.238 0.699,-0.423 v 0 c 0.464,-0.182 0.746,-0.281 0.844,-0.293 v 0 c 0.098,-0.012 0.3,-0.019 0.606,-0.019 v 0 c 0.307,0 0.57,0.123 0.79,0.368 v 0 c 0.048,0.024 0.318,0.037 0.808,0.037 v 0 c 0.489,0 1.346,0.232 2.57,0.698 v 0 c 0.221,0.097 0.342,0.147 0.367,0.147 v 0 c 0.416,0.122 0.894,0.624 1.433,1.505 v 0 c 10.16,16.526 21.091,33.394 32.796,50.606 v 0 c 0.048,0.074 0.072,0.184 0.072,0.331 v 0 c 0,0.489 -0.319,0.735 -0.954,0.735 v 0 l -1.726,-0.074 -2.938,0.11 c -0.564,0 -1.016,-0.135 -1.359,-0.404" /></g></g></g></g><g
       id="g122"><g
         id="g124"><g
           id="g130"><g
             id="g132"><path
               id="path142"
               style="fill:url(#linearGradient140);stroke:none"
               d="m 1098.507,420.62 c -0.588,-0.734 -1.347,-1.91 -2.277,-3.525 v 0 c -0.442,-0.785 -1.789,-3.061 -4.04,-6.833 v 0 c -2.252,-3.77 -3.924,-6.603 -5.013,-8.5 v 0 c -1.09,-1.898 -1.818,-3.141 -2.185,-3.728 v 0 c -0.367,-0.587 -0.631,-1.022 -0.79,-1.303 v 0 c -0.159,-0.282 -0.324,-0.638 -0.495,-1.066 v 0 c -0.172,-0.427 -0.258,-0.789 -0.258,-1.083 v 0 c 0,-0.294 0.099,-0.513 0.294,-0.661 v 0 c 0.196,-0.148 0.73,-0.386 1.598,-0.717 v 0 c 0.868,-0.33 1.56,-0.495 2.075,-0.495 v 0 c 0.514,0 1.174,0.526 1.983,1.579 v 0 c 2.888,3.844 5.374,6.917 7.454,9.218 v 0 c 2.081,2.301 4.72,5.007 7.915,8.116 v 0 c 3.195,3.11 5.197,4.7 6.005,4.775 v 0 l 0.073,-0.075 c -0.073,-0.464 -0.747,-1.646 -2.021,-3.542 v 0 c -1.272,-1.898 -2.343,-3.564 -3.213,-4.995 v 0 c -0.869,-1.432 -1.721,-3.154 -2.551,-5.161 v 0 c -0.834,-2.007 -1.249,-3.8 -1.249,-5.38 v 0 c 0,-1.579 0.635,-2.919 1.909,-4.021 v 0 c 1.273,-1.101 2.558,-1.664 3.856,-1.689 v 0 c 1.297,-0.024 2.486,0.146 3.563,0.514 v 0 c 1.91,0.687 4.615,2.608 8.115,5.766 v 0 c 1.151,0.685 1.726,1.947 1.726,3.783 v 0 c 0,1.835 -0.318,2.753 -0.954,2.753 v 0 c -0.343,0 -1.788,-1.26 -4.334,-3.782 v 0 c -0.955,-0.93 -2.026,-1.787 -3.214,-2.571 v 0 c -1.187,-0.783 -2.172,-1.174 -2.955,-1.174 v 0 c -1.469,0 -2.204,0.537 -2.204,1.614 v 0 c 0,0.564 0.171,1.274 0.515,2.131 v 0 c 0.195,0.465 0.384,0.893 0.568,1.286 v 0 c 0.184,0.391 0.429,0.856 0.734,1.395 v 0 c 0.307,0.538 0.564,0.992 0.773,1.359 v 0 c 0.208,0.368 0.483,0.827 0.825,1.378 v 0 c 0.343,0.549 0.589,0.936 0.735,1.156 v 0 c 0.146,0.22 0.373,0.57 0.68,1.047 v 0 c 0.305,0.477 0.495,0.77 0.569,0.882 v 0 c 0.073,0.109 0.538,0.788 1.396,2.036 v 0 c 0.855,1.25 1.547,2.284 2.074,3.104 v 0 c 0.526,0.82 1.048,1.751 1.561,2.79 v 0 c 0.514,1.041 0.772,1.935 0.772,2.683 v 0 c 0,0.746 -0.338,1.425 -1.011,2.038 v 0 c -0.673,0.61 -1.579,0.918 -2.717,0.918 v 0 c -1.138,0 -2.418,-0.308 -3.838,-0.918 v 0 c -2.914,-1.249 -6.489,-4.224 -10.724,-8.925 v 0 l 1.544,2.314 c 2.129,3.183 3.194,5.35 3.194,6.5 v 0 c 0,0.735 -0.294,1.102 -0.881,1.102 v 0 c -2.621,0 -4.482,-0.699 -5.582,-2.093" /></g></g></g></g><g
       id="g144"><g
         id="g146"><g
           id="g152"><g
             id="g154"><path
               id="path164"
               style="fill:url(#linearGradient162);stroke:none"
               d="m 1131.706,421.611 c -2.057,-0.857 -3.978,-1.848 -5.766,-2.974 v 0 c -1.788,-1.127 -3.274,-2.48 -4.463,-4.059 v 0 c -1.187,-1.579 -1.78,-3.171 -1.78,-4.773 v 0 c 0,-1.605 0.575,-2.81 1.725,-3.618 v 0 c 0.539,-0.392 1.066,-0.697 1.58,-0.919 v 0 c 0.515,-0.22 1.211,-0.459 2.093,-0.714 v 0 c 0.881,-0.258 2.295,-0.612 4.242,-1.067 v 0 c 1.947,-0.453 3.329,-0.832 4.149,-1.138 v 0 c 0.822,-0.306 1.23,-0.666 1.23,-1.083 v 0 c 0,-0.881 -1.132,-1.763 -3.395,-2.645 v 0 c -2.266,-0.882 -4.867,-1.321 -7.804,-1.321 v 0 c -0.393,0 -0.821,0.219 -1.286,0.661 v 0 c -0.466,0.44 -0.698,0.967 -0.698,1.579 v 0 l 0.037,0.588 c 0,0.513 -0.491,0.771 -1.47,0.771 v 0 c -0.979,0 -1.781,-0.521 -2.404,-1.561 v 0 c -0.625,-1.041 -0.937,-2.162 -0.937,-3.36 v 0 c 0,-1.199 0.508,-2.235 1.524,-3.104 v 0 c 1.015,-0.868 2.626,-1.34 4.83,-1.414 v 0 c -0.809,-1.15 -1.213,-2.32 -1.213,-3.507 v 0 c 0,-1.187 0.722,-2.1 2.168,-2.735 v 0 c 0.611,-0.246 1.216,-0.459 1.818,-0.644 v 0 c 0.599,-0.183 1.113,-0.39 1.54,-0.624 v 0 c 0.43,-0.232 0.644,-0.496 0.644,-0.79 v 0 c 0,-0.293 -0.233,-0.575 -0.698,-0.845 v 0 c -1.101,-0.66 -3.293,-1.113 -6.573,-1.357 v 0 c -0.099,0 -0.178,0.091 -0.24,0.275 v 0 c -0.061,0.183 -0.269,0.275 -0.623,0.275 v 0 c -0.356,0 -0.741,-0.355 -1.157,-1.065 v 0 c -0.417,-0.71 -0.624,-1.53 -0.624,-2.461 v 0 c 0,-0.931 0.171,-1.493 0.513,-1.689 v 0 c 0.343,-0.196 1.078,-0.293 2.204,-0.293 v 0 c 2.521,0 4.786,0.545 6.794,1.634 v 0 c 2.008,1.09 3.452,2.834 4.334,5.233 v 0 c 0.268,0.735 0.403,1.512 0.403,2.331 v 0 c 0,0.822 -0.33,1.525 -0.991,2.112 v 0 c -0.661,0.588 -1.395,0.967 -2.203,1.139 v 0 c -0.809,0.172 -1.543,0.367 -2.204,0.587 v 0 c -0.661,0.221 -0.992,0.515 -0.992,0.882 v 0 c 0,0.367 0.331,0.98 0.992,1.837 v 0 c 5.142,0.904 9.132,2.741 11.973,5.508 v 0 c 1.542,1.541 2.313,3.182 2.313,4.922 v 0 c 0,0.758 -0.307,1.602 -0.918,2.532 v 0 c -0.612,0.931 -1.714,1.763 -3.306,2.498 v 0 c -1.591,0.734 -4.92,1.604 -9.989,2.608 v 0 c -1.126,0.22 -1.688,0.508 -1.688,0.862 v 0 c 0,0.355 0.415,0.913 1.248,1.672 v 0 c 0.832,0.758 1.878,1.554 3.139,2.386 v 0 c 1.261,0.832 2.774,1.586 4.536,2.258 v 0 c 1.763,0.675 3.453,1.048 5.068,1.121 v 0 c -0.098,-0.343 -0.27,-0.667 -0.514,-0.973 v 0 c -0.245,-0.306 -0.367,-0.606 -0.367,-0.899 v 0 c 0,-0.295 0.092,-0.478 0.275,-0.552 v 0 c 0.184,-0.073 0.336,-0.19 0.459,-0.347 v 0 c 0.123,-0.16 0.276,-0.29 0.459,-0.387 v 0 c 0.184,-0.098 0.625,-0.147 1.323,-0.147 v 0 c 0.698,0 1.64,0.294 2.827,0.881 v 0 c 1.188,0.588 2.058,1.25 2.608,1.984 v 0 c 0.549,0.734 0.827,1.749 0.827,3.048 v 0 0.258 c 0,0.513 -0.099,0.978 -0.295,1.394 v 0 c -0.636,1.176 -2.314,1.764 -5.031,1.764 v 0 c -2.766,0 -6.183,-0.845 -10.246,-2.535" /></g></g></g></g><g
       id="g166"><g
         id="g168"><g
           id="g174"><g
             id="g176"><path
               id="path186"
               style="fill:url(#linearGradient184);stroke:none"
               d="m 1153.851,416.213 c -1.935,-1.52 -3.71,-3.201 -5.326,-5.05 v 0 c -1.614,-1.849 -2.92,-3.893 -3.91,-6.132 v 0 c -0.992,-2.242 -1.488,-4.47 -1.488,-6.685 v 0 c 0,-2.216 0.673,-3.948 2.02,-5.196 v 0 c 1.052,-1.005 2.411,-1.505 4.077,-1.505 v 0 c 1.664,0 3.813,0.916 6.445,2.753 v 0 c 2.632,1.837 4.963,4.077 6.995,6.721 v 0 c -0.49,-1.102 -0.734,-2.382 -0.734,-3.836 v 0 c 0,-1.459 0.464,-2.787 1.396,-3.986 v 0 c 0.93,-1.2 2.381,-1.8 4.352,-1.8 v 0 c 1.97,0 4.162,0.98 6.573,2.938 v 0 c 2.411,1.957 3.971,3.636 4.682,5.031 v 0 c 0.147,0.295 0.22,0.82 0.22,1.578 v 0 c 0,0.761 -0.049,1.494 -0.145,2.205 v 0 c -0.099,0.71 -0.382,1.064 -0.845,1.064 v 0 c -0.295,0 -0.515,-0.06 -0.662,-0.182 v 0 c -0.146,-0.123 -0.594,-0.601 -1.34,-1.433 v 0 c -0.748,-0.833 -1.513,-1.647 -2.296,-2.442 v 0 c -0.783,-0.796 -1.676,-1.542 -2.681,-2.24 v 0 c -1.003,-0.698 -1.872,-1.047 -2.607,-1.047 v 0 c -0.734,0 -1.102,0.673 -1.102,2.02 v 0 c 0,0.441 0.036,0.784 0.111,1.028 v 0 c 0.367,1.983 1.181,4.376 2.442,7.18 v 0 c 1.261,2.804 2.411,5.105 3.452,6.905 v 0 c 1.04,1.799 1.719,2.858 2.038,3.175 v 0 c 0.318,0.318 0.477,0.821 0.477,1.507 v 0 c 0,1.272 -0.931,1.909 -2.791,1.909 v 0 c -0.807,0 -1.413,-0.116 -1.817,-0.348 v 0 c -0.404,-0.234 -0.9,-0.79 -1.488,-1.671 v 0 c -0.22,0.66 -0.747,1.212 -1.578,1.651 v 0 c -0.834,0.441 -1.911,0.663 -3.233,0.663 v 0 c -3.428,0 -7.174,-1.593 -11.237,-4.775 m -4.921,-17.334 c 0,0.856 0.667,2.447 2.002,4.774 v 0 c 1.333,2.325 2.795,4.321 4.387,5.986 v 0 c 4.48,4.652 8.815,6.978 13.002,6.978 v 0 c -3.33,-4.58 -5.56,-7.578 -6.685,-8.998 v 0 c -1.027,-1.274 -3.11,-3.262 -6.242,-5.968 v 0 c -3.135,-2.704 -5.045,-4.058 -5.73,-4.058 v 0 c -0.49,0 -0.734,0.428 -0.734,1.286" /></g></g></g></g><g
       id="g188"><g
         id="g190"><g
           id="g196"><g
             id="g198"><path
               id="path208"
               style="fill:url(#linearGradient206);stroke:none"
               d="m 1184.479,416.213 c -1.934,-1.52 -3.709,-3.201 -5.326,-5.05 v 0 c -1.615,-1.849 -2.919,-3.893 -3.91,-6.132 v 0 c -0.992,-2.242 -1.488,-4.47 -1.488,-6.685 v 0 c 0,-2.216 0.674,-3.948 2.02,-5.196 v 0 c 1.052,-1.005 2.411,-1.505 4.076,-1.505 v 0 c 1.665,0 3.814,0.916 6.447,2.753 v 0 c 2.631,1.837 4.963,4.077 6.995,6.721 v 0 c -0.491,-1.102 -0.735,-2.382 -0.735,-3.836 v 0 c 0,-1.459 0.466,-2.787 1.396,-3.986 v 0 c 0.931,-1.2 2.381,-1.8 4.353,-1.8 v 0 c 1.969,0 4.161,0.98 6.573,2.938 v 0 c 2.411,1.957 3.971,3.636 4.682,5.031 v 0 c 0.146,0.295 0.22,0.82 0.22,1.578 v 0 c 0,0.761 -0.049,1.494 -0.146,2.205 v 0 c -0.099,0.71 -0.381,1.064 -0.845,1.064 v 0 c -0.295,0 -0.515,-0.06 -0.661,-0.182 v 0 c -0.147,-0.123 -0.594,-0.601 -1.34,-1.433 v 0 c -0.748,-0.833 -1.513,-1.647 -2.297,-2.442 v 0 c -0.784,-0.796 -1.676,-1.542 -2.68,-2.24 v 0 c -1.003,-0.698 -1.873,-1.047 -2.607,-1.047 v 0 c -0.735,0 -1.102,0.673 -1.102,2.02 v 0 c 0,0.441 0.036,0.784 0.11,1.028 v 0 c 0.367,1.983 1.181,4.376 2.442,7.18 v 0 c 1.261,2.804 2.413,5.105 3.452,6.905 v 0 c 1.041,1.799 1.72,2.858 2.039,3.175 v 0 c 0.317,0.318 0.477,0.821 0.477,1.507 v 0 c 0,1.272 -0.931,1.909 -2.791,1.909 v 0 c -0.807,0 -1.414,-0.116 -1.818,-0.348 v 0 c -0.403,-0.234 -0.9,-0.79 -1.487,-1.671 v 0 c -0.221,0.66 -0.747,1.212 -1.58,1.651 v 0 c -0.833,0.441 -1.91,0.663 -3.231,0.663 v 0 c -3.429,0 -7.174,-1.593 -11.238,-4.775 m -4.92,-17.334 c 0,0.856 0.666,2.447 2.001,4.774 v 0 c 1.333,2.325 2.797,4.321 4.388,5.986 v 0 c 4.479,4.652 8.814,6.978 13,6.978 v 0 c -3.329,-4.58 -5.557,-7.578 -6.684,-8.998 v 0 c -1.028,-1.274 -3.108,-3.262 -6.242,-5.968 v 0 c -3.135,-2.704 -5.045,-4.058 -5.729,-4.058 v 0 c -0.49,0 -0.734,0.428 -0.734,1.286" /></g></g></g></g><g
       id="g210"><g
         id="g212"><g
           id="g218"><g
             id="g220"><path
               id="path230"
               style="fill:url(#linearGradient228);stroke:none"
               d="m 1229.98,439.863 c -0.367,0 -0.612,-0.043 -0.734,-0.128 v 0 c -0.122,-0.087 -0.569,-0.569 -1.341,-1.451 v 0 c -0.77,-0.881 -2.184,-2.864 -4.241,-5.949 v 0 l -3.305,-0.148 c -0.343,-0.024 -0.839,-0.048 -1.488,-0.073 v 0 c -0.648,-0.024 -1.235,-0.049 -1.761,-0.073 v 0 c -0.528,-0.025 -1.072,-0.055 -1.636,-0.091 v 0 c -0.563,-0.038 -1.402,-0.386 -2.515,-1.048 v 0 c -1.114,-0.66 -1.758,-1.262 -1.928,-1.798 v 0 c -0.073,-0.222 -0.288,-0.528 -0.644,-0.919 v 0 c -0.354,-0.392 -0.531,-0.796 -0.531,-1.212 v 0 c 0,-0.416 0.331,-0.765 0.991,-1.046 v 0 c 0.662,-0.282 1.346,-0.423 2.057,-0.423 v 0 h 0.33 c 0.465,0 2.118,0.159 4.958,0.478 v 0 l 1.396,0.183 c -2.645,-4.163 -5.288,-8.618 -7.932,-13.368 v 0 c -1.617,-2.914 -2.957,-5.662 -4.023,-8.243 v 0 c -1.065,-2.584 -1.602,-4.781 -1.616,-6.593 v 0 c -0.012,-1.813 0.442,-3.25 1.36,-4.315 v 0 c 0.918,-1.065 2.356,-1.781 4.316,-2.149 v 0 c 0.316,-0.074 0.66,-0.11 1.027,-0.11 v 0 c 1.691,0 3.379,0.539 5.068,1.616 v 0 c 1.689,1.077 3.77,2.68 6.243,4.811 v 0 c 1.102,0.954 1.653,2.032 1.653,3.23 v 0 c 0,2.205 -0.319,3.306 -0.954,3.306 v 0 c -0.197,0 -1.666,-1.223 -4.407,-3.673 v 0 c -1.029,-0.904 -2.155,-1.743 -3.38,-2.514 v 0 c -1.224,-0.772 -2.337,-1.157 -3.342,-1.157 v 0 c -1.004,0 -1.505,0.477 -1.505,1.431 v 0 c 0,0.465 0.048,1.066 0.147,1.801 v 0 c 0.22,1.616 2.112,5.637 5.674,12.064 v 0 c 3.561,6.427 6.335,11.157 8.319,14.193 v 0 c 0.586,0.025 3.72,0.318 9.401,0.882 v 0 c 0.709,0.074 1.377,0.287 2.001,0.642 v 0 c 0.624,0.355 0.937,0.79 0.937,1.304 v 0 c 0,0.515 -0.16,0.9 -0.478,1.158 v 0 c -0.319,0.256 -0.667,0.635 -1.046,1.137 v 0 c -0.381,0.502 -0.717,0.809 -1.011,0.919 v 0 c -0.294,0.109 -0.838,0.165 -1.634,0.165 v 0 c -0.796,0 -2.149,-0.073 -4.058,-0.22 v 0 c 0.048,0.097 0.423,0.691 1.121,1.781 v 0 c 0.697,1.089 1.302,2.062 1.817,2.919 v 0 c 0.514,0.857 0.771,1.383 0.771,1.58 v 0 c 0,0.195 -0.085,0.404 -0.257,0.623 v 0 c -0.171,0.222 -0.367,0.331 -0.587,0.331 v 0 l -1.506,0.367 z" /></g></g></g></g><g
       id="g232"><g
         id="g234"><g
           id="g240"><g
             id="g242"><path
               id="path252"
               style="fill:url(#linearGradient250);stroke:none"
               d="m 922.938,713.999 v -11.543 l -9.936,-4.403 v 9.845 c 0,0.523 -0.382,0.989 -0.903,1.039 v 0 C 911.502,708.994 911,708.526 911,707.94 v 0 -10.775 l -9.938,-4.404 v 10.842 c 0,0.523 -0.382,0.99 -0.903,1.039 v 0 c -0.597,0.057 -1.099,-0.411 -1.099,-0.996 v 0 -11.772 l -5.149,-2.281 c -0.479,-0.213 -0.751,-0.753 -0.585,-1.25 v 0 c 0.145,-0.427 0.537,-0.685 0.951,-0.685 v 0 c 0.136,0 0.273,0.027 0.406,0.086 v 0 l 4.377,1.94 v -31.671 l -9.937,-4.403 v 13.797 c 0,0.523 -0.383,0.99 -0.903,1.039 v 0 c -0.598,0.058 -1.1,-0.411 -1.1,-0.996 v 0 -14.728 l -9.938,-4.403 v 13.105 c 0,0.523 -0.381,0.991 -0.902,1.04 v 0 c -0.597,0.057 -1.1,-0.411 -1.1,-0.995 v 0 -14.038 l -4.497,-1.993 c -0.478,-0.212 -0.75,-0.752 -0.584,-1.249 v 0 c 0.143,-0.427 0.538,-0.685 0.952,-0.685 v 0 c 0.135,0 0.272,0.027 0.404,0.086 v 0 l 3.725,1.651 V 539.4 H 854.987 V 537 h 44.073 35.59 v 80.842 l 21.878,9.291 v -90.132 h 14.989 V 537 h 44.074 v 2.4 H 992.12 v 77.283 c 0,0.424 -0.267,0.801 -0.666,0.943 v 0 l -32.923,11.726 v 62.799 c 0,0.446 -0.296,0.839 -0.725,0.961 v 0 l -32.865,9.448 v 11.396 c 0,0.523 -0.383,0.99 -0.903,1.039 v 0 c -0.033,0.003 -0.066,0.005 -0.098,0.005 v 0 c -0.553,0 -1.002,-0.448 -1.002,-1.001 m -9.936,-61.6 v 43.464 l 9.936,4.404 V 647.738 Z M 901.062,658 v 32.571 l 9.938,4.404 v -41.636 z m -11.939,-6.581 9.937,4.405 V 539.4 h -9.937 z m -11.941,-5.291 9.938,4.405 V 539.4 h -9.938 z" /></g></g></g></g></g></svg>